<?xml version="1.0" encoding="UTF-8" standalone="no"?>
<!-- Created with Inkscape (http://www.inkscape.org/) -->

<svg
   xmlns:dc="http://purl.org/dc/elements/1.1/"
   xmlns:cc="http://creativecommons.org/ns#"
   xmlns:rdf="http://www.w3.org/1999/02/22-rdf-syntax-ns#"
   xmlns:svg="http://www.w3.org/2000/svg"
   xmlns="http://www.w3.org/2000/svg"
   xmlns:sodipodi="http://sodipodi.sourceforge.net/DTD/sodipodi-0.dtd"
   xmlns:inkscape="http://www.inkscape.org/namespaces/inkscape"
   width="365.50955"
   height="200.91086"
   viewBox="0 0 365.50955 200.91086"
   id="svg2"
   version="1.1"
   inkscape:version="0.91 r13725"
   sodipodi:docname="Website_Logo.svg">
  <defs
     id="defs4">
    <filter
       height="1.800721"
       y="-0.40036058"
       width="1.7787834"
       x="-0.38939178"
       id="filter6020"
       style="color-interpolation-filters:sRGB"
       inkscape:collect="always">
      <feGaussianBlur
         id="feGaussianBlur6022"
         stdDeviation="2.4261845"
         inkscape:collect="always" />
    </filter>
    <filter
       style="color-interpolation-filters:sRGB"
       inkscape:label="Drop Shadow"
       id="filter4639">
      <feFlood
         flood-opacity="0.498039"
         flood-color="rgb(13,148,242)"
         result="flood"
         id="feFlood4641" />
      <feComposite
         in="flood"
         in2="SourceGraphic"
         operator="out"
         result="composite1"
         id="feComposite4643" />
      <feGaussianBlur
         in="composite1"
         stdDeviation="10.1"
         result="blur"
         id="feGaussianBlur4645" />
      <feOffset
         dx="0"
         dy="0"
         result="offset"
         id="feOffset4647" />
      <feComposite
         in="offset"
         in2="SourceGraphic"
         operator="in"
         result="composite2"
         id="feComposite4649" />
    </filter>
  </defs>
  <sodipodi:namedview
     id="base"
     pagecolor="#ffffff"
     bordercolor="#666666"
     borderopacity="1.0"
     inkscape:pageopacity="0.0"
     inkscape:pageshadow="2"
     inkscape:zoom="3.5828386"
     inkscape:cx="183.68737"
     inkscape:cy="69.749965"
     inkscape:document-units="px"
     inkscape:current-layer="forcefieldSecurity "
     showgrid="false"
     units="px"
     inkscape:window-width="1920"
     inkscape:window-height="1017"
     inkscape:window-x="-8"
     inkscape:window-y="-8"
     inkscape:window-maximized="1"
     fit-margin-top="0"
     fit-margin-left="0"
     fit-margin-right="0"
     fit-margin-bottom="0"
     showborder="true" />
  <metadata
     id="metadata7">
    <rdf:RDF>
      <cc:Work
         rdf:about="">
        <dc:format>image/svg+xml</dc:format>
        <dc:type
           rdf:resource="http://purl.org/dc/dcmitype/StillImage" />
        <dc:title />
      </cc:Work>
    </rdf:RDF>
  </metadata>
  <g
     inkscape:label="Layer 1"
     inkscape:groupmode="layer"
     id="layer1"
     transform="translate(0.11628251,-851.45131)">
    <g
       id="layer1-4"
       inkscape:label="Layer 1"
       transform="matrix(0.52650669,0,0,0.52650718,-1.0662128,822.12639)">
      <g
         transform="matrix(6.4453782,0,0,6.4453782,-1027.3274,-1006.962)"
         id="g4193">
        <g
           style="font-style:normal;font-variant:normal;font-weight:300;font-stretch:normal;font-size:10px;line-height:125%;font-family:Roboto;-inkscape-font-specification:'Roboto, Light';text-align:start;letter-spacing:0px;word-spacing:0px;writing-mode:lr-tb;text-anchor:start;opacity:0.98000004;fill:#ececec;fill-opacity:1;stroke:none;stroke-width:1px;stroke-linecap:butt;stroke-linejoin:miter;stroke-opacity:1"
           id="forcefieldSecurity ">
          <path
             d="m 171.84464,221.94165 0,-4.80469 -0.87403,0 0,-0.47851 0.87403,0 0,-0.77149 q 0,-0.7959 0.3955,-1.23047 0.40039,-0.43457 1.11817,-0.43457 0.16113,0 0.32715,0.0244 0.16601,0.0244 0.33691,0.0684 l -0.0732,0.4834 q -0.11719,-0.0293 -0.24414,-0.0439 -0.12207,-0.0195 -0.28809,-0.0195 -0.47851,0 -0.73242,0.30273 -0.25391,0.30274 -0.25391,0.84961 l 0,0.77149 1.25977,0 0,0.47851 -1.25977,0 0,4.80469 -0.58593,0 z"
             style="font-style:normal;font-variant:normal;font-weight:300;font-stretch:normal;font-size:10px;line-height:125%;font-family:Roboto;-inkscape-font-specification:'Roboto, Light';text-align:start;writing-mode:lr-tb;text-anchor:start;fill:#ececec;fill-opacity:1"
             id="path4158" />
          <path
             d="m 174.37393,219.22192 q 0,-1.16699 0.63965,-1.91406 0.63965,-0.74707 1.69434,-0.74707 1.05957,0 1.69922,0.74707 0.63964,0.74707 0.63964,1.91406 l 0,0.16114 q 0,1.17187 -0.63964,1.91894 -0.63477,0.74219 -1.68946,0.74219 -1.06445,0 -1.7041,-0.74219 -0.63965,-0.74707 -0.63965,-1.91894 l 0,-0.16114 z m 0.58594,0.16114 q 0,0.91797 0.46387,1.54297 0.46386,0.625 1.29394,0.625 0.81543,0 1.2793,-0.625 0.46875,-0.625 0.46875,-1.54297 l 0,-0.16114 q 0,-0.90332 -0.46875,-1.5332 -0.46875,-0.62988 -1.28906,-0.62988 -0.82032,0 -1.28418,0.62988 -0.46387,0.62988 -0.46387,1.5332 l 0,0.16114 z"
             style="font-style:normal;font-variant:normal;font-weight:300;font-stretch:normal;font-size:10px;line-height:125%;font-family:Roboto;-inkscape-font-specification:'Roboto, Light';text-align:start;writing-mode:lr-tb;text-anchor:start;fill:#ececec;fill-opacity:1"
             id="path4160" />
          <path
             d="m 182.69913,217.16138 -0.43457,-0.0293 q -0.55176,0 -0.90821,0.3125 -0.35156,0.30762 -0.50293,0.84961 l 0,3.64746 -0.58593,0 0,-5.2832 0.51269,0 0.0732,0.8789 0,0.0586 q 0.2295,-0.48828 0.61524,-0.76172 0.38574,-0.27344 0.91797,-0.27344 0.1123,0 0.21484,0.0195 0.10742,0.0146 0.17578,0.0342 l -0.0781,0.54688 z"
             style="font-style:normal;font-variant:normal;font-weight:300;font-stretch:normal;font-size:10px;line-height:125%;font-family:Roboto;-inkscape-font-specification:'Roboto, Light';text-align:start;writing-mode:lr-tb;text-anchor:start;fill:#ececec;fill-opacity:1"
             id="path4162" />
          <path
             d="m 185.52628,221.55103 q 0.58105,0 1.02539,-0.33204 0.44433,-0.33203 0.44433,-0.92285 l 0.51758,0 0.01,0.0293 q 0.0244,0.73242 -0.58594,1.22559 -0.61035,0.49316 -1.41113,0.49316 -1.07911,0 -1.66993,-0.73731 -0.58593,-0.74218 -0.58593,-1.90429 l 0,-0.20508 q 0,-1.15234 0.59082,-1.89453 0.59082,-0.74219 1.66015,-0.74219 0.86914,0 1.44532,0.5127 0.58105,0.51269 0.56152,1.34765 l -0.01,0.0293 -0.52246,0 q 0,-0.63477 -0.42969,-1.01074 -0.4248,-0.38086 -1.04492,-0.38086 -0.84961,0 -1.25976,0.61035 -0.40528,0.60547 -0.40528,1.52832 l 0,0.20508 q 0,0.9375 0.40528,1.54297 0.40527,0.60547 1.26465,0.60547 z"
             style="font-style:normal;font-variant:normal;font-weight:300;font-stretch:normal;font-size:10px;line-height:125%;font-family:Roboto;-inkscape-font-specification:'Roboto, Light';text-align:start;writing-mode:lr-tb;text-anchor:start;fill:#ececec;fill-opacity:1"
             id="path4164" />
          <path
             d="m 190.72647,222.04419 q -0.99121,0 -1.65039,-0.73242 -0.6543,-0.73242 -0.6543,-1.85547 l 0,-0.26856 q 0,-1.13281 0.64942,-1.87988 0.65429,-0.74707 1.58203,-0.74707 0.97168,0 1.52832,0.61524 0.55664,0.61523 0.55664,1.64062 l 0,0.49805 -3.73047,0 0,0.1416 q 0,0.89355 0.47363,1.49414 0.47364,0.60059 1.24512,0.60059 0.54688,0 0.93262,-0.15137 0.38574,-0.15137 0.65918,-0.43457 l 0.24902,0.40039 q -0.29785,0.3125 -0.75683,0.49805 -0.45411,0.18066 -1.08399,0.18066 z m -0.0732,-4.98535 q -0.64942,0 -1.08887,0.49804 -0.43945,0.49317 -0.51269,1.24024 l 0.01,0.0244 3.09571,0 0,-0.14648 q 0,-0.68848 -0.40528,-1.15234 -0.40527,-0.46387 -1.09863,-0.46387 z"
             style="font-style:normal;font-variant:normal;font-weight:300;font-stretch:normal;font-size:10px;line-height:125%;font-family:Roboto;-inkscape-font-specification:'Roboto, Light';text-align:start;writing-mode:lr-tb;text-anchor:start;fill:#ececec;fill-opacity:1"
             id="path4166" />
          <path
             d="m 194.2421,221.94165 0,-4.80469 -0.87891,0 0,-0.47851 0.87891,0 0,-0.67383 q 0,-0.83984 0.46386,-1.29883 0.46387,-0.46387 1.28907,-0.46387 0.32714,0 0.66406,0.0733 0.33691,0.0732 0.68359,0.21484 l -0.0976,0.50293 q -0.29786,-0.12207 -0.57618,-0.19043 -0.27832,-0.0684 -0.63476,-0.0684 -0.5957,0 -0.90332,0.31738 -0.30274,0.31739 -0.30274,0.91309 l 0,0.67383 1.23536,0 0,0.47851 -1.23536,0 0,4.80469 -0.58593,0 z m 3.41796,0 -0.58593,0 0,-5.2832 0.58593,0 0,5.2832 z"
             style="font-style:normal;font-variant:normal;font-weight:300;font-stretch:normal;font-size:10px;line-height:125%;font-family:Roboto;-inkscape-font-specification:'Roboto, Light';text-align:start;writing-mode:lr-tb;text-anchor:start;fill:#ececec;fill-opacity:1"
             id="path4168" />
          <path
             d="m 201.25381,222.04419 q -0.99121,0 -1.65039,-0.73242 -0.65429,-0.73242 -0.65429,-1.85547 l 0,-0.26856 q 0,-1.13281 0.64941,-1.87988 0.6543,-0.74707 1.58203,-0.74707 0.97168,0 1.52832,0.61524 0.55664,0.61523 0.55664,1.64062 l 0,0.49805 -3.73047,0 0,0.1416 q 0,0.89355 0.47364,1.49414 0.47363,0.60059 1.24511,0.60059 0.54688,0 0.93262,-0.15137 0.38574,-0.15137 0.65918,-0.43457 l 0.24903,0.40039 q -0.29786,0.3125 -0.75684,0.49805 -0.4541,0.18066 -1.08399,0.18066 z m -0.0732,-4.98535 q -0.64941,0 -1.08886,0.49804 -0.43946,0.49317 -0.5127,1.24024 l 0.01,0.0244 3.0957,0 0,-0.14648 q 0,-0.68848 -0.40527,-1.15234 -0.40528,-0.46387 -1.09864,-0.46387 z"
             style="font-style:normal;font-variant:normal;font-weight:300;font-stretch:normal;font-size:10px;line-height:125%;font-family:Roboto;-inkscape-font-specification:'Roboto, Light';text-align:start;writing-mode:lr-tb;text-anchor:start;fill:#ececec;fill-opacity:1"
             id="path4170" />
          <path
             d="m 205.08194,221.94165 -0.58105,0 0,-7.61719 0.58105,0 0,7.61719 z"
             style="font-style:normal;font-variant:normal;font-weight:300;font-stretch:normal;font-size:10px;line-height:125%;font-family:Roboto;-inkscape-font-specification:'Roboto, Light';text-align:start;writing-mode:lr-tb;text-anchor:start;fill:#ececec;fill-opacity:1"
             id="path4172" />
          <path
             d="m 206.46378,219.34399 q 0,-1.26464 0.53222,-2.02148 0.53711,-0.76172 1.49414,-0.76172 0.55176,0 0.95703,0.23438 0.40528,0.23437 0.67383,0.66406 l 0,-3.13477 0.58106,0 0,7.61719 -0.51758,0 -0.0488,-0.7666 q -0.26367,0.41992 -0.67871,0.64453 -0.41504,0.22461 -0.97656,0.22461 -0.94727,0 -1.48438,-0.70313 -0.53222,-0.708 -0.53222,-1.89453 l 0,-0.10254 z m 0.58593,0.10254 q 0,0.95703 0.38086,1.52344 0.38574,0.56641 1.15723,0.56641 0.56641,0 0.94238,-0.25391 0.38086,-0.25391 0.59082,-0.70312 l 0,-2.48047 q -0.20019,-0.45899 -0.5664,-0.74219 -0.36621,-0.28809 -0.95704,-0.28809 -0.77148,0 -1.1621,0.63477 -0.38575,0.62988 -0.38575,1.64062 l 0,0.10254 z"
             style="font-style:normal;font-variant:normal;font-weight:300;font-stretch:normal;font-size:10px;line-height:125%;font-family:Roboto;-inkscape-font-specification:'Roboto, Light';text-align:start;writing-mode:lr-tb;text-anchor:start;fill:#ececec;fill-opacity:1"
             id="path4174" />
          <path
             d="m 225.18936,220.59888 q 0,-0.3711 -0.30762,-0.64942 -0.30273,-0.27832 -1.09863,-0.4541 -0.94726,-0.20508 -1.40137,-0.54199 -0.44921,-0.33691 -0.44921,-0.95215 0,-0.60547 0.50781,-1.02051 0.51269,-0.41992 1.35254,-0.41992 0.89355,0 1.41601,0.44434 0.52246,0.43945 0.49805,1.10351 l -0.01,0.0293 -0.54199,0 q 0,-0.43457 -0.37109,-0.75684 -0.36621,-0.32226 -0.99121,-0.32226 -0.63965,0 -0.96192,0.27832 -0.31738,0.27344 -0.31738,0.64453 0,0.36621 0.27344,0.60547 0.27832,0.23926 1.10351,0.41992 0.94239,0.20996 1.41114,0.57617 0.46875,0.36133 0.46875,0.98633 0,0.65918 -0.53711,1.06934 -0.53223,0.40527 -1.41114,0.40527 -0.96191,0 -1.51367,-0.45898 -0.54687,-0.45899 -0.51758,-1.09375 l 0.01,-0.0293 0.53711,0 q 0.0342,0.57129 0.46387,0.83008 0.43457,0.25879 1.0205,0.25879 0.63477,0 1.00098,-0.27832 0.36621,-0.27833 0.36621,-0.67383 z"
             style="font-style:normal;font-variant:normal;font-weight:300;font-stretch:normal;font-size:10px;line-height:125%;font-family:Roboto;-inkscape-font-specification:'Roboto, Light';text-align:start;writing-mode:lr-tb;text-anchor:start;fill:#ececec;fill-opacity:1"
             id="path4176" />
          <path
             d="m 229.10538,222.04419 q -0.99121,0 -1.65039,-0.73242 -0.6543,-0.73242 -0.6543,-1.85547 l 0,-0.26856 q 0,-1.13281 0.64941,-1.87988 0.6543,-0.74707 1.58204,-0.74707 0.97167,0 1.52832,0.61524 0.55664,0.61523 0.55664,1.64062 l 0,0.49805 -3.73047,0 0,0.1416 q 0,0.89355 0.47363,1.49414 0.47363,0.60059 1.24512,0.60059 0.54687,0 0.93261,-0.15137 0.38575,-0.15137 0.65918,-0.43457 l 0.24903,0.40039 q -0.29785,0.3125 -0.75684,0.49805 -0.4541,0.18066 -1.08398,0.18066 z m -0.0732,-4.98535 q -0.64942,0 -1.08887,0.49804 -0.43946,0.49317 -0.5127,1.24024 l 0.01,0.0244 3.0957,0 0,-0.14648 q 0,-0.68848 -0.40527,-1.15234 -0.40528,-0.46387 -1.09863,-0.46387 z"
             style="font-style:normal;font-variant:normal;font-weight:300;font-stretch:normal;font-size:10px;line-height:125%;font-family:Roboto;-inkscape-font-specification:'Roboto, Light';text-align:start;writing-mode:lr-tb;text-anchor:start;fill:#ececec;fill-opacity:1"
             id="path4178" />
          <path
             d="m 234.23721,221.55103 q 0.58106,0 1.02539,-0.33204 0.44434,-0.33203 0.44434,-0.92285 l 0.51758,0 0.01,0.0293 q 0.0244,0.73242 -0.58593,1.22559 -0.61036,0.49316 -1.41114,0.49316 -1.0791,0 -1.66992,-0.73731 -0.58594,-0.74218 -0.58594,-1.90429 l 0,-0.20508 q 0,-1.15234 0.59082,-1.89453 0.59082,-0.74219 1.66016,-0.74219 0.86914,0 1.44531,0.5127 0.58106,0.51269 0.56153,1.34765 l -0.01,0.0293 -0.52246,0 q 0,-0.63477 -0.42969,-1.01074 -0.4248,-0.38086 -1.04492,-0.38086 -0.84961,0 -1.25977,0.61035 -0.40527,0.60547 -0.40527,1.52832 l 0,0.20508 q 0,0.9375 0.40527,1.54297 0.40528,0.60547 1.26465,0.60547 z"
             style="font-style:normal;font-variant:normal;font-weight:300;font-stretch:normal;font-size:10px;line-height:125%;font-family:Roboto;-inkscape-font-specification:'Roboto, Light';text-align:start;writing-mode:lr-tb;text-anchor:start;fill:#ececec;fill-opacity:1"
             id="path4180" />
          <path
             d="m 240.9169,221.07739 q -0.25391,0.46387 -0.68359,0.71778 -0.42969,0.24902 -1.01563,0.24902 -0.83496,0 -1.30859,-0.56641 -0.47363,-0.5664 -0.47363,-1.75781 l 0,-3.06152 0.58593,0 0,3.07129 q 0,0.96679 0.32715,1.38672 0.33203,0.41992 0.9375,0.41992 0.66406,0 1.05957,-0.29785 0.39551,-0.29786 0.55176,-0.82032 l 0,-3.75976 0.58594,0 0,5.2832 -0.51758,0 -0.0488,-0.86426 z"
             style="font-style:normal;font-variant:normal;font-weight:300;font-stretch:normal;font-size:10px;line-height:125%;font-family:Roboto;-inkscape-font-specification:'Roboto, Light';text-align:start;writing-mode:lr-tb;text-anchor:start;fill:#ececec;fill-opacity:1"
             id="path4182" />
          <path
             d="m 245.45303,217.16138 -0.43457,-0.0293 q -0.55175,0 -0.9082,0.3125 -0.35156,0.30762 -0.50293,0.84961 l 0,3.64746 -0.58594,0 0,-5.2832 0.5127,0 0.0732,0.8789 0,0.0586 q 0.22949,-0.48828 0.61523,-0.76172 0.38575,-0.27344 0.91797,-0.27344 0.11231,0 0.21485,0.0195 0.10742,0.0146 0.17578,0.0342 l -0.0781,0.54688 z"
             style="font-style:normal;font-variant:normal;font-weight:300;font-stretch:normal;font-size:10px;line-height:125%;font-family:Roboto;-inkscape-font-specification:'Roboto, Light';text-align:start;writing-mode:lr-tb;text-anchor:start;fill:#ececec;fill-opacity:1"
             id="path4184" />
          <path
             d="m 247.07413,221.94165 -0.58106,0 0,-5.2832 0.58106,0 0,5.2832 z m 0,-6.79687 -0.58106,0 0,-0.82032 0.58106,0 0,0.82032 z"
             style="font-style:normal;font-variant:normal;font-weight:300;font-stretch:normal;font-size:10px;line-height:125%;font-family:Roboto;-inkscape-font-specification:'Roboto, Light';text-align:start;writing-mode:lr-tb;text-anchor:start;fill:#ececec;fill-opacity:1"
             id="path4186" />
          <path
             d="m 249.60342,215.30591 0,1.35254 1.16211,0 0,0.47851 -1.16211,0 0,3.44239 q 0,0.51757 0.18555,0.7373 0.19043,0.21484 0.50293,0.21484 0.1416,0 0.27344,-0.01 0.13672,-0.0146 0.3125,-0.0439 l 0.0879,0.43457 q -0.14649,0.0635 -0.35645,0.0977 -0.20996,0.0342 -0.41992,0.0342 -0.55664,0 -0.86914,-0.35156 -0.30762,-0.35157 -0.30762,-1.11328 l 0,-3.44239 -0.91308,0 0,-0.47851 0.91308,0 0,-1.35254 0.59082,0 z"
             style="font-style:normal;font-variant:normal;font-weight:300;font-stretch:normal;font-size:10px;line-height:125%;font-family:Roboto;-inkscape-font-specification:'Roboto, Light';text-align:start;writing-mode:lr-tb;text-anchor:start;fill:#ececec;fill-opacity:1"
             id="path4188" />
          <path
             d="m 253.50479,220.51099 0.18555,0.62988 0.0293,0 1.59667,-4.48242 0.6543,0 -2.29492,6.12793 q -0.20508,0.53711 -0.53223,0.91308 -0.32715,0.37598 -0.95703,0.37598 -0.10254,0 -0.24902,-0.0244 -0.14649,-0.0195 -0.21485,-0.0439 l 0.0684,-0.48828 q 0.0586,0.01 0.18555,0.0195 0.13184,0.0146 0.19043,0.0146 0.38086,0 0.61035,-0.27344 0.22949,-0.26855 0.39063,-0.69336 l 0.27832,-0.71289 -2.04102,-5.21484 0.64942,0 1.45019,3.85254 z"
             style="font-style:normal;font-variant:normal;font-weight:300;font-stretch:normal;font-size:10px;line-height:125%;font-family:Roboto;-inkscape-font-specification:'Roboto, Light';text-align:start;writing-mode:lr-tb;text-anchor:start;fill:#ececec;fill-opacity:1"
             id="path4190" />
        </g>
        <ellipse
           style="opacity:0.69899998;fill:#007fff;fill-opacity:1;filter:url(#filter6020)"
           id="light"
           cx="294.36615"
           cy="19.746679"
           rx="7.4768438"
           ry="7.2719984"
           transform="matrix(0.33517033,0,0,0.33517033,117.47407,212.53018)" />
      </g>
    </g>
    <g
       id="g4454"
       transform="matrix(1.0594294,0,0,1.0594304,-3.8271058,819.17915)"
       style="fill:none;fill-opacity:1;stroke:#f7b255;stroke-width:2.83171166;stroke-miterlimit:4;stroke-dasharray:none;stroke-opacity:1">
      <path
         sodipodi:nodetypes="cccccc"
         inkscape:connector-curvature="0"
         d="m 28.496756,61.377695 0,97.622315 m 0,-97.622315 40.64837,0 m -40.64837,46.486815 27.10324,0"
         style="fill:none;fill-opacity:1;stroke:#f7b255;stroke-width:2.83171166;stroke-linecap:round;stroke-linejoin:miter;stroke-miterlimit:4;stroke-dasharray:none;stroke-opacity:1;opacity:0.86"
         id="path4262" />
      <path
         sodipodi:nodetypes="cccc"
         inkscape:connector-curvature="0"
         d="m 79.474746,61.377695 0,97.622315 m 0,0 45.697984,0"
         style="fill:none;fill-opacity:1;stroke:#f7b255;stroke-width:2.83171166;stroke-linecap:round;stroke-linejoin:miter;stroke-miterlimit:4;stroke-dasharray:none;stroke-opacity:1"
         id="path4264" />
      <path
         sodipodi:nodetypes="ccccsc"
         inkscape:connector-curvature="0"
         id="path4322"
         d="m 8.0045167,88.700062 c 0.179836,-2.460628 0.44757,-4.840958 0.799159,-7.140797 C 14.681751,51.808968 33.669965,33.322596 61.788036,32.82219 c 30.51896,-0.134528 54.055294,21.087394 54.055294,64.453561 0,43.366169 12.37316,61.724259 38.33264,61.724259 41.4863,0 37.55678,-57.31172 37.55678,-99.724778"
         style="fill:none;fill-opacity:1;fill-rule:evenodd;stroke:#f7b255;stroke-width:2.83171166;stroke-linecap:round;stroke-linejoin:miter;stroke-miterlimit:4;stroke-dasharray:none;stroke-opacity:1" />
      <g
         style="fill:none;fill-opacity:1;stroke:#f7b255;stroke-width:2.83171166;stroke-linecap:round;stroke-miterlimit:4;stroke-dasharray:none;stroke-opacity:1"
         transform="translate(-6.2068969,0)"
         id="g4355">
        <ellipse
           id="path4324"
           style="opacity:0.98999999;fill:none;fill-opacity:1;stroke:#f7b255;stroke-width:2.83171166;stroke-linecap:round;stroke-linejoin:miter;stroke-miterlimit:4;stroke-dasharray:none;stroke-opacity:1"
           cy="111.54"
           cx="269.62848"
           rx="58.366943"
           ry="63.750008" />
      </g>
      <path
         sodipodi:nodetypes="ccccccccc"
         inkscape:connector-curvature="0"
         id="path4330"
         d="m 192.8017,111.55501 41.73485,0 m 0,0 0,-43.425006 29.18659,43.403636 28.5077,43.44637 0,-43.425 m 0,0 52.63986,0"
         style="fill:none;fill-opacity:1;fill-rule:evenodd;stroke:#f7b255;stroke-width:2.83171166;stroke-linecap:round;stroke-linejoin:round;stroke-miterlimit:4;stroke-dasharray:none;stroke-opacity:1" />
      <path
         sodipodi:nodetypes="cc"
         inkscape:connector-curvature="0"
         id="path4359"
         d="M 292.4099,68.091644 234.97054,154.48866"
         style="fill:none;fill-opacity:1;fill-rule:evenodd;stroke:#f7b255;stroke-width:2.83171166;stroke-linecap:round;stroke-linejoin:round;stroke-miterlimit:4;stroke-dasharray:none;stroke-opacity:1" />
      <circle
         r="2.25"
         cy="58.996777"
         cx="191.65881"
         id="path4369-3"
         style="opacity:0.98999999;fill:none;fill-opacity:1;stroke:#f7b255;stroke-width:2.83171166;stroke-linecap:round;stroke-linejoin:round;stroke-miterlimit:4;stroke-dasharray:none;stroke-opacity:1" />
      <circle
         r="2.25"
         cy="87.838394"
         cx="8.112422"
         id="path4369-3-8"
         style="opacity:0.98999999;fill:none;fill-opacity:1;stroke:#f7b255;stroke-width:2.83171166;stroke-linecap:round;stroke-linejoin:round;stroke-miterlimit:4;stroke-dasharray:none;stroke-opacity:1" />
      <circle
         r="2.25"
         cy="111.53001"
         cx="343.89896"
         id="path4369-3-9"
         style="opacity:0.98999999;fill:none;fill-opacity:1;stroke:#f7b255;stroke-width:2.83171166;stroke-linecap:round;stroke-linejoin:round;stroke-miterlimit:4;stroke-dasharray:none;stroke-opacity:1" />
    </g>
  </g>
</svg>
