<?xml version="1.0" encoding="UTF-8" standalone="no"?>
<svg
   xmlns:dc="http://purl.org/dc/elements/1.1/"
   xmlns:cc="http://creativecommons.org/ns#"
   xmlns:rdf="http://www.w3.org/1999/02/22-rdf-syntax-ns#"
   xmlns:svg="http://www.w3.org/2000/svg"
   xmlns="http://www.w3.org/2000/svg"
   xmlns:sodipodi="http://sodipodi.sourceforge.net/DTD/sodipodi-0.dtd"
   xmlns:inkscape="http://www.inkscape.org/namespaces/inkscape"
   version="1.1"
   width="24"
   height="24"
   viewBox="0 0 24 24"
   id="svg4184"
   inkscape:version="0.91 r13725"
   sodipodi:docname="linkedin-box.svg">
  <metadata
     id="metadata4192">
    <rdf:RDF>
      <cc:Work
         rdf:about="">
        <dc:format>image/svg+xml</dc:format>
        <dc:type
           rdf:resource="http://purl.org/dc/dcmitype/StillImage" />
      </cc:Work>
    </rdf:RDF>
  </metadata>
  <defs
     id="defs4190" />
  <sodipodi:namedview
     pagecolor="#ffffff"
     bordercolor="#666666"
     borderopacity="1"
     objecttolerance="10"
     gridtolerance="10"
     guidetolerance="10"
     inkscape:pageopacity="0"
     inkscape:pageshadow="2"
     inkscape:window-width="1394"
     inkscape:window-height="737"
     id="namedview4188"
     showgrid="false"
     inkscape:zoom="28.333333"
     inkscape:cx="12"
     inkscape:cy="12"
     inkscape:window-x="0"
     inkscape:window-y="0"
     inkscape:window-maximized="0"
     inkscape:current-layer="svg4184" />
  <path
     d="M19,19H16V13.7A1.5,1.5 0 0,0 14.5,12.2A1.5,1.5 0 0,0 13,13.7V19H10V10H13V11.2C13.5,10.36 14.59,9.8 15.5,9.8A3.5,3.5 0 0,1 19,13.3M6.5,8.31C5.5,8.31 4.69,7.5 4.69,6.5A1.81,1.81 0 0,1 6.5,4.69C7.5,4.69 8.31,5.5 8.31,6.5A1.81,1.81 0 0,1 6.5,8.31M8,19H5V10H8M20,2H4C2.89,2 2,2.89 2,4V20A2,2 0 0,0 4,22H20A2,2 0 0,0 22,20V4C22,2.89 21.1,2 20,2Z"
     id="path4186"
     style="fill:#ffffff;fill-opacity:1" />
</svg>
