<?xml version="1.0" encoding="UTF-8" standalone="no"?>
<svg
   xmlns:dc="http://purl.org/dc/elements/1.1/"
   xmlns:cc="http://creativecommons.org/ns#"
   xmlns:rdf="http://www.w3.org/1999/02/22-rdf-syntax-ns#"
   xmlns:svg="http://www.w3.org/2000/svg"
   xmlns="http://www.w3.org/2000/svg"
   xmlns:sodipodi="http://sodipodi.sourceforge.net/DTD/sodipodi-0.dtd"
   xmlns:inkscape="http://www.inkscape.org/namespaces/inkscape"
   version="1.1"
   width="24"
   height="24"
   viewBox="0 0 24 24"
   id="svg4271"
   inkscape:version="0.91 r13725"
   sodipodi:docname="pinterest-box.svg">
  <metadata
     id="metadata4279">
    <rdf:RDF>
      <cc:Work
         rdf:about="">
        <dc:format>image/svg+xml</dc:format>
        <dc:type
           rdf:resource="http://purl.org/dc/dcmitype/StillImage" />
      </cc:Work>
    </rdf:RDF>
  </metadata>
  <defs
     id="defs4277" />
  <sodipodi:namedview
     pagecolor="#ffffff"
     bordercolor="#666666"
     borderopacity="1"
     objecttolerance="10"
     gridtolerance="10"
     guidetolerance="10"
     inkscape:pageopacity="0"
     inkscape:pageshadow="2"
     inkscape:window-width="750"
     inkscape:window-height="480"
     id="namedview4275"
     showgrid="false"
     inkscape:zoom="9.8333333"
     inkscape:cx="-1.5254237"
     inkscape:cy="12"
     inkscape:window-x="20"
     inkscape:window-y="42"
     inkscape:window-maximized="0"
     inkscape:current-layer="svg4271" />
  <path
     d="M13,16.2C12.2,16.2 11.43,15.86 10.88,15.28L9.93,18.5L9.86,18.69L9.83,18.67C9.64,19 9.29,19.2 8.9,19.2C8.29,19.2 7.8,18.71 7.8,18.1C7.8,18.05 7.81,18 7.81,17.95H7.8L7.85,17.77L9.7,12.21C9.7,12.21 9.5,11.59 9.5,10.73C9.5,9 10.42,8.5 11.16,8.5C11.91,8.5 12.58,8.76 12.58,9.81C12.58,11.15 11.69,11.84 11.69,12.81C11.69,13.55 12.29,14.16 13.03,14.16C15.37,14.16 16.2,12.4 16.2,10.75C16.2,8.57 14.32,6.8 12,6.8C9.68,6.8 7.8,8.57 7.8,10.75C7.8,11.42 8,12.09 8.34,12.68C8.43,12.84 8.5,13 8.5,13.2A1,1 0 0,1 7.5,14.2C7.13,14.2 6.79,14 6.62,13.7C6.08,12.81 5.8,11.79 5.8,10.75C5.8,7.47 8.58,4.8 12,4.8C15.42,4.8 18.2,7.47 18.2,10.75C18.2,13.37 16.57,16.2 13,16.2M20,2H4C2.89,2 2,2.89 2,4V20A2,2 0 0,0 4,22H20A2,2 0 0,0 22,20V4C22,2.89 21.1,2 20,2Z"
     id="path4273"
     style="fill:#ffffff;fill-opacity:1" />
</svg>
